<svg width="1920" height="798" viewBox="0 0 1920 798" fill="none" xmlns="http://www.w3.org/2000/svg">
<path d="M-1 243.562C56.5149 178.033 285.674 56.1041 742.193 92.6205C810.21 98.0611 994.058 134.635 1233.32 109.738C1532.4 78.6156 1825.47 -18.381 1927 4.44174" stroke="#008202" stroke-width="2"/>
<path d="M-1 314.562C56.5149 249.033 285.674 127.104 742.193 163.62C810.21 169.061 994.058 205.635 1233.32 180.738C1532.4 149.616 1825.47 52.619 1927 75.4417" stroke="#F3D915" stroke-width="2"/>
<path d="M-1 370.562C56.5149 305.033 285.674 183.104 742.193 219.62C810.21 225.061 994.058 261.635 1233.32 236.738C1532.4 205.616 1825.47 108.619 1927 131.442" stroke="#008202" stroke-width="2"/>
<path d="M-1 441.562C56.5149 376.033 285.674 254.104 742.193 290.62C810.21 296.061 994.058 332.635 1233.32 307.738C1532.4 276.616 1825.47 179.619 1927 202.442" stroke="#F3D915" stroke-width="2"/>
<path d="M-1 507.562C56.5149 442.033 285.674 320.104 742.193 356.62C810.21 362.061 994.058 398.635 1233.32 373.738C1532.4 342.616 1825.47 245.619 1927 268.442" stroke="#008202" stroke-width="2"/>
<path d="M-1 578.562C56.5149 513.033 285.674 391.104 742.193 427.62C810.21 433.061 994.058 469.635 1233.32 444.738C1532.4 413.616 1825.47 316.619 1927 339.442" stroke="#F3D915" stroke-width="2"/>
<path d="M-19 796.562C38.5149 731.033 267.674 609.104 724.193 645.62C792.21 651.061 976.058 687.635 1215.32 662.738C1514.4 631.616 1807.47 534.619 1909 557.442" stroke="#008202" stroke-width="2"/>
<path d="M-8 730.562C49.5149 665.033 278.674 543.104 735.193 579.62C803.21 585.061 987.058 621.635 1226.32 596.738C1525.4 565.616 1818.47 468.619 1920 491.442" stroke="#F3D915" stroke-width="2"/>
<path d="M0 651.562C57.5149 586.033 286.674 464.104 743.193 500.62C811.21 506.061 995.058 542.635 1234.32 517.738C1533.4 486.616 1826.47 389.619 1928 412.442" stroke="#008202" stroke-width="2"/>
</svg>
