<svg width="48" height="45" viewBox="0 0 48 45" fill="none" xmlns="http://www.w3.org/2000/svg">
<g clip-path="url(#clip0_68_794)">
<path d="M42 15.9998C41.7534 16.0091 41.5075 16.0338 41.264 16.0738L38.308 10.1638C38.9326 9.52188 39.4052 8.74802 39.6911 7.89921C39.977 7.0504 40.0688 6.14827 39.9598 5.25927C39.8508 4.37028 39.5438 3.51705 39.0613 2.76245C38.5788 2.00784 37.9332 1.37108 37.1721 0.899059C36.4109 0.427036 35.5535 0.131779 34.6631 0.0350352C33.7727 -0.0617091 32.8719 0.0425233 32.0271 0.340056C31.1823 0.637588 30.415 1.12084 29.7818 1.75422C29.1485 2.3876 28.6654 3.15497 28.368 3.99982H19.632C19.3342 3.15645 18.8511 2.39054 18.2184 1.75839C17.5857 1.12624 16.8193 0.643914 15.9757 0.346866C15.132 0.0498173 14.2325 -0.0544027 13.3433 0.0418659C12.4541 0.138134 11.5978 0.432445 10.8372 0.903164C10.0767 1.37388 9.43135 2.00905 8.94857 2.76197C8.46578 3.51489 8.15786 4.36643 8.04742 5.25399C7.93699 6.14156 8.02685 7.04259 8.31041 7.89086C8.59397 8.73913 9.06402 9.51308 9.686 10.1558L6.726 16.0738C6.48575 16.0343 6.24329 16.0095 6 15.9998C4.4087 15.9998 2.88258 16.632 1.75736 17.7572C0.632141 18.8824 0 20.4085 0 21.9998C0 23.5911 0.632141 25.1172 1.75736 26.2425C2.88258 27.3677 4.4087 27.9998 6 27.9998C6.24396 27.9902 6.48709 27.9655 6.728 27.9258L9.686 33.8458C9.06198 34.4884 8.59005 35.2627 8.30498 36.1118C8.0199 36.9609 7.92895 37.8632 8.03881 38.7521C8.14867 39.641 8.45655 40.494 8.93977 41.2481C9.42299 42.0023 10.0692 42.6384 10.8309 43.1097C11.5926 43.581 12.4503 43.8754 13.3408 43.9712C14.2314 44.0671 15.1321 43.9619 15.9766 43.6635C16.8211 43.3651 17.5879 42.881 18.2205 42.247C18.8532 41.6129 19.3355 40.845 19.632 39.9998H28.368C28.6653 40.8432 29.1479 41.6092 29.7801 42.2416C30.4123 42.874 31.1782 43.3567 32.0215 43.6542C32.8648 43.9518 33.764 44.0566 34.6531 43.9611C35.5422 43.8655 36.3986 43.572 37.1594 43.102C37.9202 42.632 38.566 41.9975 39.0494 41.2452C39.5328 40.4929 39.8415 39.6418 39.9528 38.7546C40.0641 37.8673 39.9753 36.9663 39.6927 36.1179C39.4101 35.2695 38.9411 34.4952 38.32 33.8518L41.282 27.9278C41.5196 27.9664 41.7594 27.9904 42 27.9998C43.5913 27.9998 45.1174 27.3677 46.2426 26.2425C47.3679 25.1172 48 23.5911 48 21.9998C48 20.4085 47.3679 18.8824 46.2426 17.7572C45.1174 16.632 43.5913 15.9998 42 15.9998ZM6 23.9998C5.60444 23.9998 5.21776 23.8825 4.88886 23.6628C4.55996 23.443 4.30362 23.1306 4.15224 22.7652C4.00087 22.3997 3.96126 21.9976 4.03843 21.6096C4.1156 21.2217 4.30608 20.8653 4.58579 20.5856C4.86549 20.3059 5.22186 20.1154 5.60982 20.0382C5.99778 19.9611 6.39991 20.0007 6.76537 20.1521C7.13082 20.3034 7.44318 20.5598 7.66294 20.8887C7.8827 21.2176 8 21.6043 8 21.9998C8 22.5303 7.78929 23.039 7.41421 23.414C7.03914 23.7891 6.53043 23.9998 6 23.9998ZM34 3.99982C34.3956 3.99982 34.7822 4.11711 35.1111 4.33688C35.44 4.55664 35.6964 4.869 35.8478 5.23445C35.9991 5.5999 36.0387 6.00204 35.9616 6.39C35.8844 6.77796 35.6939 7.13432 35.4142 7.41403C35.1345 7.69373 34.7781 7.88422 34.3902 7.96139C34.0022 8.03856 33.6001 7.99895 33.2346 7.84758C32.8692 7.6962 32.5568 7.43986 32.3371 7.11096C32.1173 6.78206 32 6.39538 32 5.99982C32 5.46938 32.2107 4.96068 32.5858 4.5856C32.9609 4.21053 33.4696 3.99982 34 3.99982ZM14 3.99982C14.3956 3.99982 14.7822 4.11711 15.1111 4.33688C15.44 4.55664 15.6964 4.869 15.8478 5.23445C15.9991 5.5999 16.0387 6.00204 15.9616 6.39C15.8844 6.77796 15.6939 7.13432 15.4142 7.41403C15.1345 7.69373 14.7781 7.88422 14.3902 7.96139C14.0022 8.03856 13.6001 7.99895 13.2346 7.84758C12.8692 7.6962 12.5568 7.43986 12.3371 7.11096C12.1173 6.78206 12 6.39538 12 5.99982C12 5.46938 12.2107 4.96068 12.5858 4.5856C12.9609 4.21053 13.4696 3.99982 14 3.99982ZM14 39.9998C13.6044 39.9998 13.2178 39.8825 12.8889 39.6628C12.56 39.443 12.3036 39.1306 12.1522 38.7652C12.0009 38.3997 11.9613 37.9976 12.0384 37.6096C12.1156 37.2217 12.3061 36.8653 12.5858 36.5856C12.8655 36.3059 13.2219 36.1154 13.6098 36.0382C13.9978 35.9611 14.3999 36.0007 14.7654 36.1521C15.1308 36.3034 15.4432 36.5598 15.6629 36.8887C15.8827 37.2176 16 37.6043 16 37.9998C16 38.5303 15.7893 39.039 15.4142 39.414C15.0391 39.7891 14.5304 39.9998 14 39.9998ZM34 39.9998C33.6044 39.9998 33.2178 39.8825 32.8889 39.6628C32.56 39.443 32.3036 39.1306 32.1522 38.7652C32.0009 38.3997 31.9613 37.9976 32.0384 37.6096C32.1156 37.2217 32.3061 36.8653 32.5858 36.5856C32.8655 36.3059 33.2219 36.1154 33.6098 36.0382C33.9978 35.9611 34.3999 36.0007 34.7654 36.1521C35.1308 36.3034 35.4432 36.5598 35.6629 36.8887C35.8827 37.2176 36 37.6043 36 37.9998C36 38.5303 35.7893 39.039 35.4142 39.414C35.0391 39.7891 34.5304 39.9998 34 39.9998ZM34.736 32.0738C34.4925 32.0338 34.2466 32.0091 34 31.9998C32.7629 32.0023 31.5569 32.3883 30.5483 33.1047C29.5396 33.8211 28.7779 34.8325 28.368 35.9998H19.632C19.2221 34.8325 18.4604 33.8211 17.4517 33.1047C16.4431 32.3883 15.2371 32.0023 14 31.9998C13.756 32.0095 13.5129 32.0342 13.272 32.0738L10.314 26.1538C11.3944 25.0405 11.9987 23.5502 11.9987 21.9988C11.9987 20.4475 11.3944 18.9571 10.314 17.8438L13.274 11.9258C13.5142 11.9654 13.7567 11.9901 14 11.9998C15.2371 11.9973 16.4431 11.6113 17.4517 10.8949C18.4604 10.1786 19.2221 9.16709 19.632 7.99982H28.368C28.772 9.31202 29.6382 10.4332 30.8058 11.1555C31.9735 11.8778 33.3635 12.1522 34.718 11.9278L37.678 17.8518C36.5988 18.967 35.9967 20.4588 35.9993 22.0107C36.0019 23.5625 36.6091 25.0523 37.692 26.1638L34.736 32.0738ZM42 23.9998C41.6044 23.9998 41.2178 23.8825 40.8889 23.6628C40.56 23.443 40.3036 23.1306 40.1522 22.7652C40.0009 22.3997 39.9613 21.9976 40.0384 21.6096C40.1156 21.2217 40.3061 20.8653 40.5858 20.5856C40.8655 20.3059 41.2219 20.1154 41.6098 20.0382C41.9978 19.9611 42.3999 20.0007 42.7654 20.1521C43.1308 20.3034 43.4432 20.5598 43.6629 20.8887C43.8827 21.2176 44 21.6043 44 21.9998C44 22.5303 43.7893 23.039 43.4142 23.414C43.0391 23.7891 42.5304 23.9998 42 23.9998Z" fill="black"/>
</g>
<defs>
<clipPath id="clip0_68_794">
<rect width="48" height="44.0056" fill="white"/>
</clipPath>
</defs>
</svg>
