<svg width="48" height="52" viewBox="0 0 48 52" fill="none" xmlns="http://www.w3.org/2000/svg">
<path d="M13.5 6.5C13.5 6.10218 13.342 5.72064 13.0607 5.43934C12.7794 5.15804 12.3978 5 12 5C11.6022 5 11.2206 5.15804 10.9393 5.43934C10.658 5.72064 10.5 6.10218 10.5 6.5V15.5C10.4996 17.229 11.0967 18.905 12.19 20.2444C13.2834 21.5837 14.806 22.5042 16.5 22.85V45.5C16.5 45.8978 16.658 46.2794 16.9393 46.5607C17.2206 46.842 17.6022 47 18 47C18.3978 47 18.7794 46.842 19.0607 46.5607C19.342 46.2794 19.5 45.8978 19.5 45.5V22.85C21.194 22.5042 22.7166 21.5837 23.81 20.2444C24.9033 18.905 25.5004 17.229 25.5 15.5V6.5C25.5 6.10218 25.342 5.72064 25.0607 5.43934C24.7794 5.15804 24.3978 5 24 5C23.6022 5 23.2206 5.15804 22.9393 5.43934C22.658 5.72064 22.5 6.10218 22.5 6.5V15.5C22.5005 16.431 22.2122 17.3392 21.6749 18.0995C21.1376 18.8598 20.3777 19.4347 19.5 19.745V6.5C19.5 6.10218 19.342 5.72064 19.0607 5.43934C18.7794 5.15804 18.3978 5 18 5C17.6022 5 17.2206 5.15804 16.9393 5.43934C16.658 5.72064 16.5 6.10218 16.5 6.5V19.745C15.6223 19.4347 14.8624 18.8598 14.3251 18.0995C13.7878 17.3392 13.4995 16.431 13.5 15.5V6.5ZM34.5 45.5V26H30C29.6022 26 29.2206 25.842 28.9393 25.5607C28.658 25.2794 28.5 24.8978 28.5 24.5V12.5C28.5 10.511 29.478 8.651 30.813 7.313C32.151 5.978 34.011 5 36 5C36.3978 5 36.7794 5.15804 37.0607 5.43934C37.342 5.72064 37.5 6.10218 37.5 6.5V45.5C37.5 45.8978 37.342 46.2794 37.0607 46.5607C36.7794 46.842 36.3978 47 36 47C35.6022 47 35.2206 46.842 34.9393 46.5607C34.658 46.2794 34.5 45.8978 34.5 45.5Z" fill="#1B1B1B"/>
</svg>
