<svg width="44" height="45" viewBox="0 0 44 45" fill="none" xmlns="http://www.w3.org/2000/svg">
<g clip-path="url(#clip0_68_808)">
<g clip-path="url(#clip1_68_808)">
<path d="M9.625 22.6724L26.95 5.34739C28.05 4.24739 29.7 3.42239 31.625 3.42239C33.55 3.42239 35.2 4.24739 36.575 5.34739C39.325 8.09739 39.325 12.4974 36.575 14.9724L28.875 22.6724H32.725L38.225 17.1724C42.075 13.3224 42.075 7.27239 38.225 3.69739C36.3 1.77239 33.825 0.947388 31.35 0.947388C28.875 0.947388 26.675 1.49739 24.75 3.42239L7.425 21.0224C6.6 21.5724 6.05 22.3974 5.5 23.4974C6.875 22.9474 8.25 22.6724 9.625 22.6724Z" fill="black"/>
<path d="M20.075 16.0724L13.475 22.6724H26.4L20.075 16.0724ZM34.375 25.4224H9.625C4.4 25.4224 0 29.8224 0 35.0474C0 40.2724 4.4 44.6724 9.625 44.6724H34.375C39.6 44.6724 44 40.2724 44 35.0474C44 29.8224 39.6 25.4224 34.375 25.4224ZM34.375 41.9224H22V30.9224H9.625C6.6 30.9224 4.125 32.5724 2.75 34.2224C3.3 30.9224 6.05 28.1724 9.625 28.1724H34.375C38.225 28.1724 41.25 31.1974 41.25 35.0474C41.25 38.8974 38.225 41.9224 34.375 41.9224Z" fill="black"/>
</g>
</g>
<defs>
<clipPath id="clip0_68_808">
<rect width="44" height="44" fill="white" transform="translate(0 0.672363)"/>
</clipPath>
<clipPath id="clip1_68_808">
<rect width="44" height="44" fill="white" transform="translate(0 0.672363)"/>
</clipPath>
</defs>
</svg>
