<svg width="48" height="49" viewBox="0 0 48 49" fill="none" xmlns="http://www.w3.org/2000/svg">
<g clip-path="url(#clip0_68_803)">
<path fill-rule="evenodd" clip-rule="evenodd" d="M24 8.67236C24 9.2028 24.2107 9.7115 24.5858 10.0866C24.9609 10.4616 25.4696 10.6724 26 10.6724H35.172L24.586 21.2584C24.3064 21.5381 24.116 21.8944 24.0388 22.2823C23.9617 22.6702 24.0013 23.0723 24.1526 23.4377C24.304 23.8031 24.5603 24.1154 24.8891 24.3352C25.2179 24.5549 25.6045 24.6723 26 24.6724H40C40.5304 24.6724 41.0391 24.4616 41.4142 24.0866C41.7893 23.7115 42 23.2028 42 22.6724C42 22.1419 41.7893 21.6332 41.4142 21.2582C41.0391 20.8831 40.5304 20.6724 40 20.6724H30.828L41.414 10.0864C41.6936 9.80666 41.884 9.45033 41.9612 9.06243C42.0383 8.67452 41.9987 8.27245 41.8474 7.90705C41.696 7.54165 41.4397 7.22933 41.1109 7.00956C40.7821 6.78979 40.3955 6.67245 40 6.67236H26C25.4696 6.67236 24.9609 6.88308 24.5858 7.25815C24.2107 7.63322 24 8.14193 24 8.67236ZM8 20.6724C7.46957 20.6724 6.96086 20.4616 6.58579 20.0866C6.21071 19.7115 6 19.2028 6 18.6724C6 18.1419 6.21071 17.6332 6.58579 17.2582C6.96086 16.8831 7.46957 16.6724 8 16.6724H18C18.3955 16.6724 18.7821 16.7898 19.1109 17.0096C19.4397 17.2293 19.696 17.5417 19.8474 17.9071C19.9987 18.2725 20.0383 18.6745 19.9612 19.0624C19.884 19.4503 19.6936 19.8067 19.414 20.0864L12.828 26.6724H18C18.5304 26.6724 19.0391 26.8831 19.4142 27.2582C19.7893 27.6332 20 28.1419 20 28.6724C20 29.2028 19.7893 29.7115 19.4142 30.0866C19.0391 30.4616 18.5304 30.6724 18 30.6724H8C7.6045 30.6723 7.2179 30.5549 6.88908 30.3352C6.56026 30.1154 6.30398 29.8031 6.15264 29.4377C6.0013 29.0723 5.9617 28.6702 6.03883 28.2823C6.11597 27.8944 6.30638 27.5381 6.586 27.2584L13.172 20.6724H8ZM24 34.6724C23.4696 34.6724 22.9609 34.4617 22.5858 34.0866C22.2107 33.7115 22 33.2028 22 32.6724C22 32.1419 22.2107 31.6332 22.5858 31.2582C22.9609 30.8831 23.4696 30.6724 24 30.6724H32C32.3955 30.6724 32.7821 30.7898 33.1109 31.0096C33.4397 31.2293 33.696 31.5417 33.8474 31.9071C33.9987 32.2725 34.0383 32.6745 33.9612 33.0624C33.884 33.4503 33.6936 33.8067 33.414 34.0864L28.828 38.6724H32C32.5304 38.6724 33.0391 38.8831 33.4142 39.2581C33.7893 39.6332 34 40.1419 34 40.6724C34 41.2028 33.7893 41.7115 33.4142 42.0866C33.0391 42.4617 32.5304 42.6724 32 42.6724H24C23.6045 42.6723 23.2179 42.5549 22.8891 42.3352C22.5603 42.1154 22.304 41.8031 22.1526 41.4377C22.0013 41.0723 21.9617 40.6702 22.0388 40.2823C22.116 39.8944 22.3064 39.5381 22.586 39.2584L27.172 34.6724H24Z" fill="black"/>
</g>
<defs>
<clipPath id="clip0_68_803">
<rect width="48" height="48" fill="white" transform="translate(0 0.672363)"/>
</clipPath>
</defs>
</svg>
