<svg width="17" height="17" viewBox="0 0 17 17" fill="none" xmlns="http://www.w3.org/2000/svg">
<path fill-rule="evenodd" clip-rule="evenodd" d="M1.51476 8.71928C2.04275 6.5725 2.00817 4.50514 2.07145 2.32762C2.08375 1.90236 1.74968 1.54881 1.32571 1.536C0.901476 1.52319 0.547427 1.8588 0.534874 2.28406C0.474928 4.34886 0.523352 6.31374 0.0222654 8.35293C-0.0791814 8.76538 0.17316 9.18295 0.585097 9.28286C0.996776 9.38533 1.41357 9.13173 1.51476 8.71928Z" fill="#F3D915"/>
<path fill-rule="evenodd" clip-rule="evenodd" d="M6.0004 12.8795C9.5823 9.60551 12.9572 5.39394 15.3161 1.14136C15.5218 0.769901 15.3878 0.301074 15.0169 0.0961304C14.6459 -0.108813 14.1776 0.0244112 13.9719 0.395871C11.6909 4.50755 8.42693 8.58081 4.96339 11.7446C4.65034 12.0315 4.62856 12.5183 4.91472 12.8308C5.20087 13.1434 5.68735 13.1664 6.0004 12.8795Z" fill="#F3D915"/>
<path fill-rule="evenodd" clip-rule="evenodd" d="M6.90766 16.4558C10.1837 16.9963 13.5604 16.0741 16.5392 14.7701C16.9278 14.5985 17.1051 14.1451 16.9353 13.7582C16.7652 13.3688 16.3115 13.1921 15.9229 13.3611C13.2099 14.5498 10.1417 15.4311 7.15794 14.9392C6.73935 14.8701 6.34355 15.1544 6.27464 15.572C6.20547 15.9895 6.48932 16.3866 6.90766 16.4558Z" fill="#F3D915"/>
</svg>
