<svg width="96" height="61" viewBox="0 0 96 61" fill="none" xmlns="http://www.w3.org/2000/svg">
<g clip-path="url(#clip0_501_993)">
<path d="M33.8625 36.7325L27.9273 39.5001L14.3268 16.5605L25.0326 11.5684L33.8625 36.7325Z" fill="#F44336"/>
<path d="M36.3197 49.7506C38.8369 48.5769 39.928 45.5893 38.7569 43.0778C37.5857 40.5662 34.5958 39.4817 32.0786 40.6555C29.5615 41.8292 28.4703 44.8168 29.6415 47.3283C30.8127 49.8399 33.8026 50.9244 36.3197 49.7506Z" fill="#F44336"/>
</g>
<g clip-path="url(#clip1_501_993)">
<path d="M67.2371 39.7576L61.302 36.99L70.1324 11.8262L80.8382 16.8184L67.2371 39.7576Z" fill="#F44336"/>
<path d="M58.8441 50.008C61.3613 51.1818 64.3512 50.0973 65.5224 47.5857C66.6935 45.0742 65.6024 42.0866 63.0853 40.9129C60.5681 39.7391 57.5782 40.8236 56.407 43.3352C55.2359 45.8467 56.327 48.8343 58.8441 50.008Z" fill="#F44336"/>
</g>
<path d="M51.274 27.8506H44.7253L42.0938 1.3125H53.9062L51.274 27.8506Z" fill="#F44336"/>
<path d="M47.9994 40.6877C50.7767 40.6877 53.0282 38.4412 53.0282 35.67C53.0282 32.8988 50.7767 30.6523 47.9994 30.6523C45.222 30.6523 42.9705 32.8988 42.9705 35.67C42.9705 38.4412 45.222 40.6877 47.9994 40.6877Z" fill="#F44336"/>
<defs>
<clipPath id="clip0_501_993">
<rect width="42" height="42" fill="white" transform="translate(0.0925903 21.75) rotate(-25)"/>
</clipPath>
<clipPath id="clip1_501_993">
<rect width="42" height="42" fill="white" transform="translate(57.0076 4.25781) rotate(25)"/>
</clipPath>
</defs>
</svg>
