<svg width="81" height="47" viewBox="0 0 81 47" fill="none" xmlns="http://www.w3.org/2000/svg">
<g clip-path="url(#clip0_541_1104)">
<path d="M25.7295 28.9394L21.2075 31.0481L10.8452 13.5703L19.002 9.76675L25.7295 28.9394Z" fill="#F44336"/>
<path d="M27.6016 38.8577C29.5194 37.9634 30.3507 35.6872 29.4584 33.7737C28.5661 31.8601 26.288 31.0338 24.3702 31.9281C22.4524 32.8224 21.6211 35.0986 22.5134 37.0122C23.4057 38.9257 25.6837 39.752 27.6016 38.8577Z" fill="#F44336"/>
</g>
<g clip-path="url(#clip1_541_1104)">
<path d="M59.7091 31.3055L55.1871 29.1969L61.915 10.0244L70.0718 13.828L59.7091 31.3055Z" fill="#F44336"/>
<path d="M53.3144 39.1148C55.2322 40.0091 57.5103 39.1828 58.4026 37.2693C59.2949 35.3557 58.4636 33.0795 56.5458 32.1852C54.6279 31.2909 52.3499 32.1172 51.4576 34.0307C50.5653 35.9443 51.3966 38.2205 53.3144 39.1148Z" fill="#F44336"/>
</g>
<path d="M43.402 21.2195H38.4125L36.4075 1H45.4075L43.402 21.2195Z" fill="#F44336"/>
<path d="M40.9069 31C43.023 31 44.7384 29.2884 44.7384 27.177C44.7384 25.0656 43.023 23.354 40.9069 23.354C38.7909 23.354 37.0754 25.0656 37.0754 27.177C37.0754 29.2884 38.7909 31 40.9069 31Z" fill="#F44336"/>
<defs>
<clipPath id="clip0_541_1104">
<rect width="32" height="32" fill="white" transform="translate(0 17.5239) rotate(-25)"/>
</clipPath>
<clipPath id="clip1_541_1104">
<rect width="32" height="32" fill="white" transform="translate(51.915 4.25781) rotate(25)"/>
</clipPath>
</defs>
</svg>
