<svg width="48" height="48" viewBox="0 0 48 48" fill="none" xmlns="http://www.w3.org/2000/svg">
<g clip-path="url(#clip0_513_255)">
<path d="M36 15C37.3261 15 38.5979 14.4732 39.5355 13.5355C40.4732 12.5979 41 11.3261 41 10C41 8.67392 40.4732 7.40215 39.5355 6.46447C38.5979 5.52678 37.3261 5 36 5C34.6739 5 33.4021 5.52678 32.4645 6.46447C31.5268 7.40215 31 8.67392 31 10C31 11.3261 31.5268 12.5979 32.4645 13.5355C33.4021 14.4732 34.6739 15 36 15Z" stroke="#1B1B1B" stroke-width="4"/>
<path d="M11.9999 16.77L20.0029 13.998L30.9999 19.247L20.0029 27.444L30.9999 34.684L24.0079 43.998M35.3199 21.643L38.0019 23.102L43.9999 17.466M16.8489 31.545L13.8789 35.457L4.00391 40.997" stroke="#1B1B1B" stroke-width="4" stroke-linecap="round" stroke-linejoin="round"/>
</g>
<defs>
<clipPath id="clip0_513_255">
<rect width="48" height="48" fill="white"/>
</clipPath>
</defs>
</svg>
