<svg width="42" height="42" viewBox="0 0 42 42" fill="none" xmlns="http://www.w3.org/2000/svg">
<g clip-path="url(#clip0_68_800)">
<path d="M13.25 27.7767C12.8301 28.1294 12.5662 28.6334 12.5155 29.1794C12.4648 29.7254 12.6314 30.2694 12.9792 30.6934C13.1541 30.9043 13.3689 31.0787 13.6113 31.2065C13.8536 31.3343 14.1189 31.4131 14.3917 31.4382C14.6646 31.4634 14.9398 31.4345 15.2014 31.3531C15.4631 31.2718 15.7062 31.1396 15.9167 30.9642C17.3093 29.8413 19.0444 29.229 20.8333 29.229C22.6223 29.229 24.3573 29.8413 25.75 30.9642C26.1248 31.2748 26.5966 31.4443 27.0833 31.4434C27.5075 31.4392 27.9202 31.3056 28.2664 31.0606C28.6126 30.8156 28.8757 30.4707 29.0207 30.0721C29.1656 29.6735 29.1855 29.2401 29.0775 28.83C28.9696 28.4198 28.739 28.0523 28.4167 27.7767C26.2669 26.0487 23.5915 25.1067 20.8333 25.1067C18.0752 25.1067 15.3998 26.0487 13.25 27.7767ZM15.0208 17.7975C15.4112 18.1855 15.9392 18.4033 16.4896 18.4033C17.04 18.4033 17.568 18.1855 17.9583 17.7975C18.3464 17.4072 18.5642 16.8792 18.5642 16.3288C18.5642 15.7784 18.3464 15.2504 17.9583 14.86C16.7661 13.7288 15.1852 13.0981 13.5417 13.0981C11.8981 13.0981 10.3173 13.7288 9.12501 14.86C8.90692 15.0468 8.7298 15.2766 8.60475 15.5351C8.4797 15.7936 8.40943 16.0751 8.39835 16.362C8.38726 16.6489 8.43561 16.935 8.54035 17.2024C8.64509 17.4697 8.80396 17.7125 9.00699 17.9155C9.21002 18.1186 9.45283 18.2774 9.72017 18.3822C9.98751 18.4869 10.2736 18.5353 10.5605 18.5242C10.8475 18.5131 11.129 18.4428 11.3874 18.3178C11.6459 18.1927 11.8757 18.0156 12.0625 17.7975C12.2562 17.6023 12.4866 17.4473 12.7405 17.3415C12.9943 17.2357 13.2667 17.1813 13.5417 17.1813C13.8167 17.1813 14.089 17.2357 14.3429 17.3415C14.5968 17.4473 14.8272 17.6023 15.0208 17.7975ZM20.8333 0.00585938C16.7129 0.00585937 12.685 1.22771 9.25896 3.51691C5.83294 5.80611 3.16268 9.05983 1.58585 12.8666C0.00902675 16.6734 -0.403543 20.8623 0.400316 24.9036C1.20417 28.9448 3.18836 32.657 6.10195 35.5706C9.01555 38.4842 12.7277 40.4684 16.769 41.2722C20.8102 42.0761 24.9991 41.6635 28.8059 40.0867C32.6127 38.5099 35.8664 35.8396 38.1556 32.4136C40.4448 28.9875 41.6667 24.9596 41.6667 20.8392C41.6667 18.1033 41.1278 15.3942 40.0808 12.8666C39.0339 10.339 37.4993 8.04235 35.5647 6.1078C33.6302 4.17325 31.3335 2.63868 28.8059 1.5917C26.2783 0.54473 23.5692 0.00585938 20.8333 0.00585938ZM20.8333 37.5059C17.537 37.5059 14.3147 36.5284 11.5738 34.697C8.83302 32.8657 6.69681 30.2627 5.43535 27.2172C4.17389 24.1718 3.84384 20.8207 4.48692 17.5877C5.13001 14.3547 6.71735 11.385 9.04823 9.05408C11.3791 6.7232 14.3488 5.13586 17.5818 4.49277C20.8149 3.84968 24.166 4.17974 27.2114 5.4412C30.2568 6.70266 32.8598 8.83887 34.6912 11.5797C36.5225 14.3205 37.5 17.5428 37.5 20.8392C37.5 25.2595 35.7441 29.4987 32.6185 32.6243C29.4929 35.7499 25.2536 37.5059 20.8333 37.5059ZM32.5417 14.86C31.3494 13.7288 29.7686 13.0981 28.125 13.0981C26.4815 13.0981 24.9006 13.7288 23.7083 14.86C23.367 15.2586 23.1887 15.7712 23.2089 16.2956C23.2292 16.8199 23.4466 17.3173 23.8176 17.6883C24.1886 18.0593 24.686 18.2767 25.2103 18.2969C25.7346 18.3172 26.2473 18.1388 26.6458 17.7975C26.8395 17.6023 27.0699 17.4473 27.3238 17.3415C27.5777 17.2357 27.85 17.1813 28.125 17.1813C28.4 17.1813 28.6723 17.2357 28.9262 17.3415C29.1801 17.4473 29.4105 17.6023 29.6042 17.7975C29.9945 18.1855 30.5225 18.4033 31.0729 18.4033C31.6233 18.4033 32.1513 18.1855 32.5417 17.7975C32.9297 17.4072 33.1475 16.8792 33.1475 16.3288C33.1475 15.7784 32.9297 15.2504 32.5417 14.86Z" fill="black"/>
</g>
<defs>
<clipPath id="clip0_68_800">
<rect width="41.6667" height="41.6667" fill="white" transform="translate(0 0.00585938)"/>
</clipPath>
</defs>
</svg>
